<svg xmlns="http://www.w3.org/2000/svg" width="1176.444" height="374.105" viewBox="0 0 1176.444 374.105">
  <path id="Path_2" data-name="Path 2" d="M83.746,139.4l-63.8-.89c-1.54,10.19-1.79,23.22-2.26,29.45h39.47l.12-.08c33.92-22.55,48.8-34.52,55.31-40.68a173.523,173.523,0,0,0-38.39-6.6,127.1,127.1,0,0,1,22.84,6.18l2.61.93ZM648.4,127.66l-103.54-2.82.08.45,2.83,15.81.02.09v.1l.01,2.06,7.3.41a9.1,9.1,0,0,0,3.86,3.5l-11.15-.84.01,4.31c.27.76.49,1.44.68,2.16.22.79.43,1.58.59,2.37.38,1.58.66,3.16.93,4.75.31,1.58.46,3.18.69,4.77s.38,3.18.53,4.78c.66,6.37.93,12.76,1.13,19.15.29,12.78-.02,25.54-.68,38.28-.43,6.36-.82,12.73-1.35,19.08l-.84,9.52c-.28,3.18-.55,6.35-.92,9.52-.55,4.81-1.08,9.61-1.65,14.41l74.15,4.25,124.85,7.68,62.41,4.02,33.43,2.28a11.215,11.215,0,0,0,2.34-8.45c-.95-9.12,4.79-40.69,8.21-59.55.69-3.79,1.28-7.06,1.71-9.53,1.12-6.49,2.18-26.88-1.74-48.49q-.54-3-1.26-6.17L616.2,151.07a18.151,18.151,0,0,0,5.57-3.01L850.676,164c-2.59-10.82-6.86-22.57-13.87-31.81l-44.24-1.01-21.97-.5-27.18-.62ZM557.206,143c9.78-4.86,21.67-7.02,32.67-7.02,13.44,0,25.54,3.23,30.77,8.73.44.46.35.7.29.84-.71,1.93-7.04,4.23-12.08,5.27a2.376,2.376,0,0,0-.03-1c-.94-3.89-11.4-5.61-17.77-5.78-4.29-.12-14.18.23-16.78,5.63-7.8-1.12-15.64-4.23-17.07-6.67m-352.07-4.64a23.756,23.756,0,0,1-.12-4.7c.04-1.58.05-3.17.12-4.74a12.97,12.97,0,0,1,3.48-8.27,12.759,12.759,0,0,1,7.84-4.06,13.852,13.852,0,0,1,2.25-.11l2.37.05,4.74.09c6.33.11,12.65.14,18.98.16a12.7,12.7,0,0,1,12.42,10.29,17.676,17.676,0,0,1,.25,2.19l.05,2.38c.03,1.57.09,3.18.09,4.72a13.057,13.057,0,0,1-10.84,12.77,32.7,32.7,0,0,1-4.68.27l-4.75.09c-6.33.1-12.65.14-18.98.16a13.7,13.7,0,0,1-8.7-3.24,13.479,13.479,0,0,1-4.52-8.05m952,70.04c-28.15-12.47-65.84-15.26-69.99-15.54-3.22-2.64-32.79-26.94-46.51-38.3,37.01-3.27,92.31,18.74,107.84,25.31,5.54,9.81,16.34,29.34,20.35,39.31-3.58-3.52-7.77-7.5-11.43-10.61Zm1.21,50.72-11.33,24.74h-13.04V257.04h37.76l-2.08,1.7s-.01.14-.04.38ZM810.056,93.41c-37.78-22.39-107.28-63.58-129.62-70.08,1.6-.72,3.3-1.6,4.97-2.54.03.01.05.01.08.02,0,0,108.98,47.17,180.28,93.54-8.22-1.04-24.26-3.39-30.76-6.43-2.28-1.07-11.79-6.71-24.95-14.51m227.66,59.19-1.51.19c-9.58-2.02-57.2-11.51-124.56-16.03-15.56-5.76-27.64-13.35-34.63-21.68,4.98-1,11.62.31,13.93,2.23,10.38,1.13,205.07,9.44,254.17,56.65,0,0,.58,1,1.55,2.71-19.1-7.91-73.33-28.53-108.95-24.07m-494.98-27.81-84.38-2.29-181.82-5.45c29.9,55.56,84.13,137.7,95.18,152.69.09.13.19.25.28.37l61.73,3.12,62.45,3.39,50,2.86c.43-4.83.8-9.65,1.24-14.48.31-3.17.53-6.34.75-9.52l.68-9.52c.42-6.35.7-12.71,1.02-19.06.44-12.71.79-25.43.39-38.13-.23-6.35-.54-12.69-1.23-18.99-.17-1.57-.31-3.15-.55-4.71s-.4-3.14-.71-4.68c-.28-1.55-.54-3.11-.89-4.63-.15-.77-.35-1.53-.55-2.27a20.844,20.844,0,0,0-.66-2.14l-.09-.24v-.19l.02-4.66-161.54-12.12,161.55,9.09.01-1.85-2.72-15.76Zm-247.37,9.4c9.78-4.86,21.67-7.02,32.67-7.02,13.44,0,25.53,3.23,30.77,8.73.44.46.35.7.3.84-.72,1.93-7.04,4.23-12.08,5.27a2.376,2.376,0,0,0-.03-1c-.94-3.89-11.4-5.61-17.78-5.78-4.3-.12-14.18.23-16.78,5.63-7.81-1.12-15.65-4.23-17.07-6.67M515.156,26.85l4.91,84.92-3.21-.08q-.285-8.9-.66-17.78l-.73-17.86-.84-17.85-.87-17.85-.05-1.12-1.15-.05c-16.27-.69-32.51-.47-48.76.17-16.24.73-32.47,1.95-48.61,4.04a369.312,369.312,0,0,0-47.96,9.13,221.038,221.038,0,0,0-23.09,7.6l-.57-22.92-1.7.04c29.66-8.71,84.58-14.03,150.15-14.77q18.72-.21,35.56-.1-.585-3.675-1.17-7.36c-11.46-.3-23.09-.46-34.7-.46-59.64,0-118.79,4.11-152.4,13.99-74.62,21.93-82.68,35.84-82.68,40.81,0,7.61,7.61,24.71,18.94,45.92l182.85,4.98,83.96,2.51-.88-5.05-.34-1.98-.26-2.01-.53-3.98-4.39-31.83c-1.5-10.61-3.11-21.19-4.71-31.79-.95-6.36-1.95-12.72-2.95-19.07Zm-173.24,80.24-9.97-.26-39.62-1.04c-17-15.48-26.12-31.97-26.57-35.62,1.65-2.37,12.55-14.1,74.42-32.43l.59,23.76a122.858,122.858,0,0,0-18.66,9.63l-.53.34.18.57c1.83,5.73,3.49,11.56,5.17,17.36l5,17.44q-2.01-8.85-4.16-17.66c-1.39-5.67-2.77-11.33-4.31-16.98a129.717,129.717,0,0,1,17.36-8.4Zm174.93,4.59-173.23-4.55,1.69-.04L344.2,62.48a221.54,221.54,0,0,1,23.74-7.22c.26-.06.51-.12.76-.18l5.95,50.33-2.7-51.11a420.14,420.14,0,0,1,43.65-7.62q24.075-2.94,48.34-4.08c15.78-.8,31.62-1.12,47.41-.94l1.22,16.66,1.33,17.82,1.44,17.81q.7,8.88,1.51,17.73m-470.03-.49-15.89-2.48c-.87-1.15-7.16-9.71-4.85-11.62,7.38.7,63.16-2.52,97.07-5.56l-13.43,7.67Zm148.31,107a80.046,80.046,0,0,0-6.8,6.61,83.5,83.5,0,0,0-14.05,20.55L21.886,215.91l-3.04-21.11,38.57-25.65ZM94.866,128.42l-11.85,8.7-62.7-.87c.8-4.45,1.9-8.13,3.44-10.14a111.514,111.514,0,0,1,71.11,2.31m451.82,153.05,74.25,4.56,124.89,7.15,62.45,3.39,33.09,1.67c-3.82,4.34-11.56,7.01-21.83,7.52-9.49.47-168.06-1.58-275.61-3.32l2.44-18.34c.12-.87.21-1.75.32-2.63m-100,19.01c-3.59-.21-7.23-.17-11.09-.13-19.14.18-40.83.39-63.59-30.22l61.65,4.21,62.42,4.02,49.91,3.07c-.08.87-.16,1.74-.25,2.61l-1.84,18.41c-50.98-.83-90.5-1.59-97.21-1.97M17.576,169.33c.01-.07.01-.16.02-.23h37.87L.106,205.91l-.09-3.16c10.76-6.51,16.71-24.92,17.56-33.42m29.29-56.99.08-.01.14-.03-10.24,8.44c-3.76.65-7.64,1.49-11.64,2.59l5.12-12.75Zm141.47,176.9a62.88,62.88,0,1,0,62.88-62.88,62.954,62.954,0,0,0-62.88,62.88m34.06-50.3,16.72,29.13a24.556,24.556,0,0,0-5.56,4.37l-24.35-23.14a57.54,57.54,0,0,1,13.19-10.36m18.57,42.51a2.835,2.835,0,1,1,2.18,1.01,2.836,2.836,0,0,1-2.18-1.01m1.86,17.55a2.853,2.853,0,0,1,3.83-1.18v.01a2.832,2.832,0,1,1-3.83,1.17m-1.32-9.76a2.83,2.83,0,1,1-2.83-2.83,2.834,2.834,0,0,1,2.83,2.83m19.39-1.02a2.835,2.835,0,1,1,3.11,2.53c-.09,0-.19.01-.29.01a2.853,2.853,0,0,1-2.82-2.54Zm-1.06,13.77a2.794,2.794,0,0,1-1.57.49,2.837,2.837,0,1,1,1.57-.49m-4.97-21.77a2.843,2.843,0,1,1,1.05.2,2.922,2.922,0,0,1-1.05-.2m-3.06-48.94-.46,19.85v13.71c-.04,0-.08-.01-.12-.01a24.052,24.052,0,0,0-6.93,1.02l-9.51-32.21a58.03,58.03,0,0,1,16.43-2.37Zm28.56,7.84-16.91,29.03a24.338,24.338,0,0,0-6.53-2.62l7.82-32.67a57.616,57.616,0,0,1,15.62,6.26m21.13,21.24-29.12,16.75a24.882,24.882,0,0,0-4.38-5.56l23.12-24.37a58.008,58.008,0,0,1,10.38,13.18m7.7,28.96-33.56-.07v-.01a24.136,24.136,0,0,0-1.02-6.95l32.19-9.54a58.105,58.105,0,0,1,2.39,16.49Zm-36.87,12.14a23.992,23.992,0,0,0,2.61-6.53l32.68,7.78a57.951,57.951,0,0,1-6.24,15.63Zm7.83,38.02-16.78-29.1a24.367,24.367,0,0,0,5.55-4.39l24.39,23.09a57.278,57.278,0,0,1-13.16,10.4m-28.97,7.73.03-33.56h.01a24.326,24.326,0,0,0,6.97-1.02l9.58,32.18a58.172,58.172,0,0,1-16.55,2.4Zm-29-7.79,16.84-29.06a24.25,24.25,0,0,0,6.54,2.61l-7.74,32.69a57.819,57.819,0,0,1-15.64-6.24m-21.17-21.19,29.08-16.81a24.585,24.585,0,0,0,4.39,5.55l-23.06,24.42a57.808,57.808,0,0,1-10.41-13.16m-7.76-29.15h33.56c0,.05-.01.1-.01.16a24.536,24.536,0,0,0,1.03,7l-32.17,9.61a58.147,58.147,0,0,1-2.42-16.61v-.16Zm7.88-29.04,29.01,16.94a24.362,24.362,0,0,0-2.63,6.53l-32.66-7.85a57.667,57.667,0,0,1,6.28-15.62M16.766,196.19.136,207.25l1.39,50.36,7.18,8.31s4.91,10.95,12.08,16.62a105.935,105.935,0,0,0,11.83,4.72h1.71l10.17,2.97-.07.56c43.71,11.65,108.54,15.54,108.54,15.54s11.15-3.17,14.28-4.3a84.953,84.953,0,0,0,163.87,16.08v-.07l558.42,3.35a84.962,84.962,0,0,0,154.23,6.59s5.78.62,13.7,1.28c1.16.1-.47,2.66.78,2.76,12.88.99,30.61.92,38.14-.38,5.53-.95,20.37-6.45,35.79-12.7l-68.65,1.18,74.25-3.48c19.62-8.1,38.47-16.66,38.67-17.86a1.43,1.43,0,0,0-.01-.46l-110.27-1.05,108.98-1.04c-2.04-2.2-6-4.92-8.88-7.27.32-2.91,2.59-23.01,3.23-28.7h-10.42L1147.746,285h-14.9V255.92h40.28l.69-.57V227.41c-3.52-3.62-11.41-11.6-17.74-17-28.02-12.36-65.57-15.05-69.13-15.28l-52.11,25.85,49.87-27.19c-6.48-5.33-35.83-29.45-47.57-39.19l-.73-.61c-8.44-1.79-56.47-11.51-124.92-16.1l-.16-.03c-16.03-5.92-28.44-13.81-35.52-22.47a6.8,6.8,0,0,0-4.13,2.86q-1.86-1.245-3.75-2.49c-7.12-.84-25.98-3.34-33.41-6.82-1.01-.47-3.38-1.81-6.82-3.8l-10.47,9.39q3.645,2.58,6.78,4.75a45.262,45.262,0,0,1,14.26,12.94l.17.01-.17-.01c6.56,8.92,10.89,20.23,13.66,31.87l193.29,13.46-192.93-11.9c5.06,22.44,4.43,45.68,2.86,54.77-.43,2.47-1.02,5.75-1.71,9.54-3.41,18.8-9.13,50.27-8.2,59.23a12.4,12.4,0,0,1-2.11,8.66l27.61,1.88-27.97-1.41c-.14.18-.27.36-.42.54-3.99,4.65-12.07,7.51-22.76,8.04-.94.05-3.34.07-7.01.07-50.97,0-346.51-4.24-365.96-5.35-3.55-.2-7.17-.16-11.01-.13-19.49.19-41.59.41-64.8-31.07-12.47-16.92-66.15-98.25-95.66-153.4l-6.81-.2-16.71-.53a14.142,14.142,0,0,1,2.59,1.74,14.624,14.624,0,0,1,4.91,8.71,15.394,15.394,0,0,1,.19,2.53l-.05,2.38c-.04,1.59-.05,3.14-.12,4.76a14.135,14.135,0,0,1-3.76,9,13.882,13.882,0,0,1-8.52,4.43,34.929,34.929,0,0,1-4.79.07l-4.75-.09c-6.33-.11-12.65-.14-18.98-.16a13.758,13.758,0,0,1-8.76-3.17,13.916,13.916,0,0,1-4.78-8.05,28.266,28.266,0,0,1-.31-4.76c-.03-1.59-.09-3.15-.09-4.75a13.946,13.946,0,0,1,3.34-9.01,14.1,14.1,0,0,1,8.05-4.76l-42.47-1.36-95-3.27,95.03,2.16,95.02,2.4,5.8.16c-11.2-21.09-18.69-38.12-18.69-45.88,0-6.48,10.85-20.55,83.49-41.9,72.72-21.37,264.74-15.8,323.41,0,40.55,10.92,86.56,39.75,121.89,63.98-1.6-.71-3.26-1.4-4.96-2.01-34.64-23.53-78.47-50.44-117.23-60.87-26.16-7.04-78.88-12.05-135.67-13.53.49,2.45.97,4.91,1.45,7.36,59.97.43,102.69,4.24,131.91,13.93,31.59,10.47,67.87,30.98,99.18,50.98a16.855,16.855,0,0,0-2.24.76l-.78.32-.38.75c-5.45,10.9-4.73,24.39,1.75,32.8a14.747,14.747,0,0,0,1.17,1.3c-15.32-.74-32.6-1.57-50.42-2.42,1.9-5.15,3.94-10.25,6.07-15.3,2.15-5.04,4.37-10.04,6.84-14.91l.39-.76-.7-.53L716.336,86c-1.46-1.08-2.86-2.27-4.39-3.24l-4.52-3.06-2.27-1.53-2.34-1.4c-3.14-1.85-6.23-3.78-9.5-5.39l-4.84-2.53c-1.62-.84-3.29-1.55-4.94-2.33a231.177,231.177,0,0,0-41.21-14.34l-5.3-1.31-5.35-1.11-5.34-1.11-5.39-.89-5.39-.87c-1.8-.27-3.61-.45-5.41-.68-3.61-.44-7.22-.92-10.85-1.16-7.24-.7-14.51-.97-21.78-1.11-3.63.01-7.27-.06-10.9.02l-10.89.42-3.23.12,1.76,2.59a7.377,7.377,0,0,0,2.13,2.09,15.719,15.719,0,0,0,2.21,1.22c1.45.68,2.87,1.2,4.22,1.76,2.7,1.1,5.29,2.35,6.92,4.28.18.25.4.48.56.74l.44.81a5.7,5.7,0,0,1,.38,1.71,27.633,27.633,0,0,1,.01,4.27c-.16,2.93-.54,5.89-.96,8.83-.81,5.9-1.89,11.79-3,17.68q-1.7,8.82-3.55,17.62,2.58-8.625,4.81-17.34c1.48-5.82,2.84-11.67,3.99-17.59.55-2.97,1.06-5.94,1.35-8.99a30.257,30.257,0,0,0,.18-4.7,8.294,8.294,0,0,0-.51-2.66l-.59-1.19c-.22-.38-.5-.72-.74-1.08a14.7,14.7,0,0,0-3.78-3.3,36.938,36.938,0,0,0-4.19-2.15c-.93-.41-1.83-.81-2.71-1.21l5.24-.06c3.59-.02,7.18.13,10.76.18,7.17.26,14.33.69,21.47,1.39,3.58.26,7.13.75,10.68,1.21,1.78.24,3.56.43,5.33.71l5.3.89,5.3.87,5.27,1.06,5.27,1.06,5.22,1.26A253.055,253.055,0,0,1,682,69.93c1.64.72,3.31,1.37,4.92,2.15l4.83,2.34c3.26,1.49,6.35,3.3,9.5,5.01l2.36,1.28,2.29,1.41,4.58,2.82c2.81,1.76,5.46,3.74,8.21,5.62q-3.105,7.185-5.68,14.55-2.73,7.785-4.95,15.73c-59.41-2.82-124.73-5.8-142.73-6.19l-1.71-6.53-21.1-80.82-13.79-.19q1.785,9.435,3.47,18.9c1.89,10.55,3.61,21.13,5.31,31.72s3.33,21.18,4.79,31.8l.55,3.98.27,1.97.35,1.98.97,5.42,103.95,3.11,95,3.03,25.25.87,24.22.83,43.88,1.51a43.618,43.618,0,0,0-13.35-11.91l-.05-.03c-3.98-2.75-8.54-5.98-13.81-9.72l-8.27-5.85c.01-.5.02-.96.02-1.37,3.1,2.19,6.08,4.3,8.9,6.3,2.13,1.51,4.14,2.93,6.05,4.28l10.39-9.32c-4.39-2.56-10.29-6.05-17.2-10.15-38.69-22.93-110.71-65.62-130.92-70.39l-1.77-.42,1.7-.66a47.81,47.81,0,0,0,5.33-2.55c-144.26-38.45-333.48-13.11-374.49.25,0,0-108.77,34.94-179.01,70.25-1.42.14-2.91.28-4.44.43l-15.67,8.94-.08.05-60.71,11.57-10.32,8.52a111.893,111.893,0,0,1,22.56-1.13,171.926,171.926,0,0,1,52.2,7.15l.93.27-.7.68c-5.38,5.24-17.34,15.12-43.86,33.2l.05.07-11.68,7.77,137.54,48.97a85.48,85.48,0,0,1,63.6-19.69,85.76,85.76,0,0,1,64.78,40.5,83.959,83.959,0,0,1,6.6,75.14,86.367,86.367,0,0,0,2.42-9.33,86.259,86.259,0,0,0-3.53-47.02c-.5-1.5-1.18-2.93-1.76-4.4-.62-1.45-1.32-2.87-1.99-4.3a85.805,85.805,0,0,0-16.71-22.76,85.494,85.494,0,0,0-14.88-11.51,83.92,83.92,0,0,0-72.41-7.11,84.477,84.477,0,0,0-16.82,8.41c-1.33.84-2.59,1.78-3.89,2.67-1.24.97-2.51,1.9-3.72,2.91s-2.44,2-3.57,3.1l-1.73,1.61-1.66,1.68a85.178,85.178,0,0,0-19.66,32.12,87.519,87.519,0,0,0-3.97,37.87,85.692,85.692,0,0,1-1.24-9.6c-.11-1.62-.16-3.23-.15-4.85v-2.43c.01-.81.07-1.62.11-2.43a81.094,81.094,0,0,1,7.81-31.5L21.986,217.2l6.79,47.1,124.11,33.55L27.926,265.59l-.46-.12-.08-.48Zm799.03-70.2s-8.55-.42-22.5-1.11a27.158,27.158,0,0,0,2.75-3.11,26.086,26.086,0,0,1,1.86-2.18,10.438,10.438,0,0,0,2.21-4.67q2.16,1.53,4.22,2.98c5.3,3.76,7.43,5.3,11.46,8.09m-59.01-25.89a29.223,29.223,0,0,0,4.19,8.59,56.7,56.7,0,0,0,20.87,17.66l5.23,3.05a15.96,15.96,0,0,1-2.49.55c-10.15-1.19-20.93-7.26-23.67-10.81-3.23-4.22-5.32-11.29-4.13-19.04m40.01,3.47c-.08,5.46-.89,11.62-2.09,12.82a28.968,28.968,0,0,0-2.21,2.57c-1.81,2.28-3.38,4.25-6.89,5.01l-1.23.27c-5.98-1.99-15.68-8.4-21.53-16.84-3.07-4.43-4.62-8.73-4.63-12.86.32-.87.66-1.75,1.07-2.63,9.95-3.47,26.08,3.89,37.51,11.66m106.23,185.67a65.15,65.15,0,1,1,65.15,65.15,65.229,65.229,0,0,1-65.15-65.15m-20.34-10.41a84.462,84.462,0,0,1,14.58-40.2,81.947,81.947,0,0,1,14.42-16.17,85.457,85.457,0,0,1,38.55-19.27,89.2,89.2,0,0,1,21.68-1.82,87.614,87.614,0,0,1,21.44,3.66,85.706,85.706,0,0,1,49.75,39.82,83.416,83.416,0,0,1,8.2,19.98,88.823,88.823,0,0,1,2.13,10.58,85.87,85.87,0,0,1,.73,10.74,83.592,83.592,0,0,1-10.37,41.05c12.33-25.62,10.68-56.81-3.74-80.58a85.969,85.969,0,0,0-12.76-16.34,83.733,83.733,0,0,0-35.22-21.02,82.72,82.72,0,0,0-20.36-3.37,85.125,85.125,0,0,0-20.58,1.63,84.981,84.981,0,0,0-66.48,92.55,81.745,81.745,0,0,0,1.84,10.4,86.415,86.415,0,0,0,3.06,10.15,83.882,83.882,0,0,1-6.87-41.79m-696.61,10.41a65.15,65.15,0,1,1,65.15,65.15,65.222,65.222,0,0,1-65.15-65.15m719.22,0a62.88,62.88,0,1,0,62.88-62.88,62.954,62.954,0,0,0-62.88,62.88m34.05-50.3,16.72,29.13a24.9,24.9,0,0,0-5.57,4.37l-24.34-23.14a57.756,57.756,0,0,1,13.19-10.36m18.57,42.51a2.835,2.835,0,1,1,4,.34v.01a2.85,2.85,0,0,1-4-.35m1.86,17.55a2.844,2.844,0,0,1,3.83-1.18v.01a2.832,2.832,0,1,1-3.83,1.17m-1.32-9.76a2.83,2.83,0,1,1-2.83-2.83,2.834,2.834,0,0,1,2.83,2.83m19.4-1.02a2.825,2.825,0,1,1,3.09,2.51c-.1.01-.2.02-.29.02a2.845,2.845,0,0,1-2.82-2.54h.02Zm-1.07,13.77a2.807,2.807,0,0,1-3.92-.76,2.83,2.83,0,1,1,3.92.76m-4.98-21.77a2.814,2.814,0,1,1,1.05.21,3.378,3.378,0,0,1-1.05-.21m-3.51-15.39c-.04,0-.08-.01-.12-.01a24.1,24.1,0,0,0-6.93,1.02l-9.51-32.2a58.047,58.047,0,0,1,16.44-2.37h.12v33.56Zm29.02-25.71-16.91,29.03a24.337,24.337,0,0,0-6.53-2.62l7.82-32.67a57.616,57.616,0,0,1,15.62,6.26m21.13,21.24-29.12,16.75a24.6,24.6,0,0,0-4.38-5.56l23.12-24.37a57.787,57.787,0,0,1,10.38,13.18m7.7,28.96-33.56-.07v-.01a24.486,24.486,0,0,0-1.02-6.95l32.19-9.55a58.113,58.113,0,0,1,2.38,16.5v.08Zm-36.87,12.14a24.272,24.272,0,0,0,2.62-6.54l32.67,7.78a58.081,58.081,0,0,1-6.24,15.63Zm7.83,38.02-16.78-29.09a24.369,24.369,0,0,0,5.55-4.39l24.4,23.09a57.777,57.777,0,0,1-13.17,10.39m-28.97,7.73.03-33.56h.01a24.394,24.394,0,0,0,6.98-1.02l9.58,32.18a58.173,58.173,0,0,1-16.55,2.4Zm-29-7.79,16.84-29.06a24.379,24.379,0,0,0,6.54,2.61l-7.74,32.69a57.82,57.82,0,0,1-15.64-6.24m-21.17-21.19,29.08-16.81a24.587,24.587,0,0,0,4.39,5.55l-23.07,24.42a58.043,58.043,0,0,1-10.4-13.16m-7.77-29.15h33.57c0,.05-.01.1-.01.16a24.536,24.536,0,0,0,1.03,7l-32.17,9.61a58.145,58.145,0,0,1-2.42-16.61Zm7.88-29.03,29.02,16.93a24.038,24.038,0,0,0-2.63,6.53l-32.66-7.85a57.9,57.9,0,0,1,6.27-15.61" transform="translate(-0.016 -0.065)" fill="#982314"/>
</svg>
